<?xml version="1.0" standalone="no"?>
<!DOCTYPE svg PUBLIC "-//W3C//DTD SVG 20010904//EN"
 "http://www.w3.org/TR/2001/REC-SVG-20010904/DTD/svg10.dtd">
<svg version="1.0" xmlns="http://www.w3.org/2000/svg"
 width="480.000000pt" height="480.000000pt" viewBox="0 0 480.000000 480.000000"
 preserveAspectRatio="xMidYMid meet">
<metadata>
Created by potrace 1.11, written by Peter Selinger 2001-2013
</metadata>
<g transform="translate(0.000000,480.000000) scale(0.100000,-0.100000)"
fill="#000000" stroke="none">
<path d="M3488 3985 c-175 -35 -243 -109 -233 -255 2 -30 7 -120 10 -200 4
-80 9 -148 11 -152 4 -7 -59 -28 -84 -28 -30 0 -159 -70 -190 -102 -72 -76
-71 -183 3 -258 49 -50 91 -70 190 -91 l80 -16 -4 -84 c-2 -46 -4 -126 -5
-178 0 -90 1 -95 28 -117 53 -46 108 -41 142 12 17 25 20 104 11 333 l-2 44
85 18 c171 36 299 86 422 165 l66 43 45 -29 c66 -41 129 -111 162 -177 26 -52
29 -69 30 -153 0 -86 -3 -101 -30 -153 -68 -135 -255 -248 -453 -274 l-43 -5
6 43 c14 108 18 127 32 175 47 155 151 203 293 135 87 -41 115 -41 137 4 23
47 -8 119 -77 178 -117 99 -335 92 -464 -16 -89 -74 -145 -256 -150 -484 -1
-39 -10 -40 -100 -17 -81 21 -171 59 -223 95 -23 16 -44 29 -48 29 -4 0 -26
14 -50 30 -24 17 -55 31 -69 32 -59 5 -105 -55 -84 -112 28 -77 184 -170 369
-219 61 -16 148 -33 181 -36 18 -1 23 -24 25 -103 3 -163 2 -537 -1 -562 -2
-14 -7 -61 -11 -105 -4 -44 -9 -89 -11 -100 -31 -163 -55 -243 -98 -320 -47
-83 -86 -110 -157 -110 -47 1 -63 6 -105 36 -94 67 -190 242 -241 437 -33 129
-37 353 -8 535 2 12 6 51 9 87 4 36 9 92 12 125 27 282 -15 395 -147 395 -47
0 -78 -21 -101 -69 -22 -45 -22 -51 -21 -471 2 -538 -9 -610 -123 -847 -62
-127 -138 -215 -202 -233 -129 -35 -205 42 -265 270 -59 219 -65 332 -56 1000
3 280 -2 355 -32 474 -25 97 -58 165 -108 219 l-39 42 23 50 c13 28 66 145
118 260 52 116 111 244 130 285 l35 75 1 -460 c0 -491 3 -549 27 -664 36 -169
100 -243 201 -235 65 5 123 73 123 142 0 28 -3 30 -44 36 -54 8 -70 30 -96
129 -43 170 -49 364 -39 1152 4 305 1 321 -61 341 -38 12 -72 5 -102 -23 -10
-8 -58 -113 -109 -232 -122 -289 -224 -519 -298 -673 l-61 -126 -32 5 c-18 3
-62 6 -97 7 l-64 1 -86 185 c-135 292 -153 331 -261 575 -103 234 -133 282
-180 285 -48 4 -59 0 -82 -32 -22 -32 -23 -38 -19 -213 6 -317 6 -796 -2 -920
-9 -168 -32 -289 -67 -360 -35 -70 -66 -96 -125 -103 -88 -9 -149 49 -149 144
0 90 56 150 146 156 46 3 75 24 87 64 21 74 -38 121 -143 112 -64 -6 -114 -29
-161 -76 -93 -93 -126 -203 -100 -339 17 -94 113 -207 195 -232 46 -14 133
-16 183 -5 124 26 220 143 267 327 38 152 44 234 44 664 1 200 4 363 7 363 3
0 32 -55 64 -122 107 -225 242 -513 247 -528 2 -8 -5 -23 -17 -35 -68 -63
-106 -167 -100 -270 10 -182 170 -314 327 -272 45 12 68 85 45 137 -5 10 2 20
21 31 17 10 39 39 57 77 17 34 33 62 37 62 8 0 44 -120 54 -180 4 -25 8 -265
9 -535 1 -269 4 -499 7 -511 4 -11 9 -47 12 -80 6 -50 15 -98 41 -218 12 -55
51 -159 82 -218 83 -159 201 -240 350 -240 199 1 360 162 461 465 17 49 33 84
36 78 4 -5 15 -36 25 -69 42 -130 140 -293 221 -366 124 -112 307 -124 446
-30 61 41 86 69 137 152 70 116 130 337 153 572 4 41 8 220 8 397 1 177 3 324
6 326 3 3 32 9 65 12 33 4 98 18 144 31 320 93 510 317 500 587 -1 34 -7 77
-12 96 -30 112 -119 228 -232 303 l-64 41 55 61 c30 33 69 90 87 126 29 59 32
73 32 160 -1 82 -4 102 -28 151 -66 136 -233 240 -429 268 -92 13 -293 11
-370 -4z m364 -159 c26 -4 64 -13 86 -20 135 -48 197 -116 205 -227 6 -89 -23
-161 -99 -236 l-52 -53 -49 15 c-146 45 -313 72 -458 74 l-40 1 0 202 0 202
60 18 c107 33 221 41 347 24z m-162 -611 c30 -3 66 -7 80 -10 14 -3 40 -8 58
-11 17 -3 32 -9 32 -13 0 -4 -26 -19 -57 -34 -88 -40 -198 -69 -305 -82 l-58
-7 0 80 c0 80 0 81 28 84 31 4 141 1 222 -7z m-413 -88 l0 -79 -49 5 c-66 8
-101 27 -113 61 -9 25 -6 31 19 51 25 20 89 40 132 41 7 1 11 -28 11 -79z
m-1826 -543 c16 -37 27 -69 25 -71 -10 -10 -55 30 -63 55 -8 27 -6 82 3 82 3
0 18 -30 35 -66z"/>
<path d="M2628 3889 c-77 -12 -129 -60 -142 -133 -7 -37 17 -110 48 -147 l26
-31 -44 -43 c-63 -63 -81 -106 -81 -190 1 -85 24 -136 87 -189 120 -103 330
-69 398 65 22 42 26 112 10 155 -13 33 -12 34 37 39 89 9 173 67 189 131 17
65 -19 146 -87 196 -55 41 -135 27 -110 -19 6 -12 26 -27 46 -33 44 -15 85
-63 85 -101 0 -79 -62 -110 -212 -108 -108 1 -153 -10 -163 -41 -14 -43 25
-62 80 -41 19 8 64 -5 66 -18 0 -3 2 -25 5 -48 16 -125 -148 -211 -269 -140
-84 49 -114 165 -68 256 29 55 63 76 128 76 61 0 89 20 78 55 -8 26 -38 38
-85 36 -47 -3 -81 37 -88 104 -4 43 -1 52 23 74 40 37 91 38 157 5 43 -22 68
-14 68 21 0 43 -102 81 -182 69z"/>
</g>
</svg>
